<?xml version="1.0" encoding="utf-8"?>
<!-- Generator: Adobe Illustrator 26.1.0, SVG Export Plug-In . SVG Version: 6.00 Build 0)  -->
<svg version="1.1" id="Layer_1" xmlns="http://www.w3.org/2000/svg" xmlns:xlink="http://www.w3.org/1999/xlink" x="0px" y="0px"
	 viewBox="0 0 238.6 211.2" style="enable-background:new 0 0 238.6 211.2;" xml:space="preserve">
<path d="M34.8,74.5C30.4,60.6,32.6,48.6,45.3,41c10.1-6,20.8-7.3,30.9,2.3c0.8-2.4,1.4-4.2,2-6c8.4-25.5,38.3-42.4,64.3-36
	c20.8,5.2,31.8,19.7,35.7,40c1.5,7.7,2.1,15.5,3.1,23.3c0.2,1.4,0.5,2.9,0.8,4.8c2.1-0.6,3.8-1,5.5-1.5c25.5-7.4,47.4,7,50.5,33.4
	c0.7,5.7,0.6,11.7-0.2,17.4c-2.3,15.8-11.7,25.3-27.1,28.9c-3.9,0.9-7.9,2-11.8,2c-2.1,0-4.2-2.2-6.4-3.5c1.7-1.8,3-4.3,5-5.2
	c5.7-2.3,11.7-3.6,17.4-5.8c8.6-3.4,12.4-10.8,12.8-19.3c0.4-7.4-0.2-15.1-2.1-22.1c-3.1-11.6-16.7-19.6-28.6-17.6
	c-4.7,0.8-9.3,2.4-13.9,3.8c-5.8,1.8-9.2,0.2-10.2-5.8c-1.6-9.5-2.6-19.1-3.9-28.7c-2.9-21.5-17.5-35.9-37.3-36.3
	c-18.2-0.4-44.5,12-47.8,41c-0.4,3.3-1,6.6-1.8,9.8C82,60.7,80.8,61.9,80,62c-0.8,0.1-2-0.9-2.6-1.8c-1.9-2.5-3.4-5.3-5.3-7.8
	c-5.8-7.7-11.5-9-20.6-5.2c-7.3,3-11.3,10.1-10.1,18.2c0.5,3.1,1.8,6,3,8.9c2.3,5.2,1,7.9-4.6,8.8c-3.1,0.5-6.2,1-9.3,1.6
	c-12.7,2.5-20,10.6-21.7,23c-1.6,11.7,3.4,21,12.9,28c6.5,4.8,13.8,6.3,21.7,5.7c3.7-0.2,8.8-0.8,8.7,4.7c-0.1,5-5,4.2-8.6,4.4
	c-13.3,0.8-24-4.1-33.8-13.1C-9,120.1,1.3,83.7,23.5,77.7C27.1,76.8,30.6,75.7,34.8,74.5z"/>
<path d="M135.7,154.5c6-0.7,10.8-1.8,15.5-1.6c3,0.1,7.2,1.3,8.5,3.5c1.2,2.1,0.5,6.9-1.2,9c-14.2,17.3-29.4,33.5-48.4,45.9
	c12.4-15.5,24.8-31,37.2-46.6c-0.3-0.5-0.7-0.9-1-1.4c-2.6,0.2-5.2,0.5-7.7,0.6c-2.6,0.1-5.4,0.2-7.9-0.3c-5.8-1.1-8.1-5.7-5.3-10.8
	c2-3.6,4.6-7,7.5-9.9c6.6-6.6,13.4-12.9,20.3-19.2c1.4-1.3,3.2-2.9,5-3.2c2.1-0.4,4.5,0.4,6.7,0.7c-0.8,1.9-1.2,4.2-2.6,5.6
	c-7.9,8.1-16,16-24,24C137.5,151.5,137,152.6,135.7,154.5z"/>
<path d="M89.3,163.4c-4,0.2-8,1.1-11.8,0.6c-3.3-0.5-7.3-1.9-9.3-4.3c-2.7-3.2-0.5-7.3,2.1-9.9c9.3-9.5,18.9-18.7,28.5-27.9
	c0.8-0.8,2-1.7,3-1.7c2.1,0.1,4.2,0.8,6.2,1.2c-0.8,1.8-1.1,4-2.4,5.3c-7.8,8-15.8,15.7-23.7,23.6c-1,1-1.7,2.3-3.2,4.4
	c5.1-0.6,9.2-1.2,13.2-1.5c2.3-0.2,4.7-0.3,6.9,0.2c4.3,1,6.2,4.6,4.6,8.8c-0.7,1.8-1.7,3.7-3,5.1c-13.3,14.9-26.5,29.9-42.9,41.7
	c-1.3,0.9-2.7,1.8-4.4,2.3c12.4-15.4,24.9-30.8,37.3-46.2C90,164.4,89.7,163.9,89.3,163.4z"/>
<path d="M151.8,87.1c1.4-6.8,3.3-13.5,3.9-20.3c0.6-6.6,0.2-13.3-0.5-19.8c-0.8-7.2-5-12.9-10-18c-0.9-1-1-2.8-1.4-4.3
	c1.6,0,3.4-0.6,4.6,0c8.8,4.8,14.9,12.3,15.9,22.2c1.3,13.7-1.6,26.7-9.5,38.4c-0.6,0.9-1,2.1-1.4,3.2
	C152.9,88.1,152.4,87.6,151.8,87.1z"/>
<path d="M34.8,90.6c-7.8,5.4-14.9,11.8-14.1,22c0.7,9.7,7.5,16.2,16.2,20.7c-0.2,0.5-0.4,1.1-0.6,1.6c-2.4,0-5.1,0.7-7.2-0.1
	c-11.1-4.4-17.6-19.5-13.4-30.3C19,95.7,27.2,93.6,34.8,90.6z"/>
</svg>
