<?xml version="1.0" encoding="utf-8"?>
<!-- Generator: Adobe Illustrator 26.1.0, SVG Export Plug-In . SVG Version: 6.00 Build 0)  -->
<svg version="1.1" id="Layer_1" xmlns="http://www.w3.org/2000/svg" xmlns:xlink="http://www.w3.org/1999/xlink" x="0px" y="0px"
	 viewBox="0 0 218.7 174.6" style="enable-background:new 0 0 218.7 174.6;" xml:space="preserve">
<path d="M69.2,49.8c-18.8-0.4-37.7-0.7-56.6-1c-3.3-0.1-8.6,0.1-11.3-2.2c-2-1.7-1.7-5.4,0.3-6.9c2.7-2.2,8.8-1.5,12-1.4
	c38.4,0.9,76.9,1.7,115.3,2.6c12.7,0.3,21.3-11.3,17.4-23.2c-2.5-7.6-9.4-9.6-15.1-3.9c-2.7,2.8-4.4,6.6-6.3,10
	c-1.3,2.4-2.7,5.5-5.7,3.9c-1.7-0.9-3-4.3-2.8-6.5c0.6-9,8.7-18.2,17.4-20.6c10.6-2.9,21.1,4.3,23.3,16.2c3.3,17.8-8.7,36-29.3,35
	C108.3,50.7,88.8,50.2,69.2,49.8z"/>
<path d="M25.6,139.6c-4.1-0.1-6.7-4-4.2-7.1c4-5,8.7-9.5,13.6-13.8c1-0.9,4.4-0.4,5.7,0.7c1.1,0.9,1.9,4.4,1.2,5.2
	c-4.6,5.1-9.7,9.8-14.7,14.6C26.7,139.6,25.9,139.6,25.6,139.6z"/>
<path d="M60,145.7c-3.3-0.6-5.9-3.3-4-5.8c4.3-5.7,9.7-10.6,15-15.5c0.7-0.7,3.8,0.1,4.8,1.1c1.1,1,1.9,4.1,1.2,4.8
	c-4.9,5.3-10.2,10.2-15.5,15.2C61.3,145.7,60.6,145.6,60,145.7z"/>
<path d="M103.4,146.6c-3.9-0.1-6.5-4-4-7.1c4-5,8.7-9.5,13.6-13.8c1-0.9,4.2-0.6,5.4,0.4c1.2,0.9,2.3,4.3,1.7,5
	c-4.9,5.3-10.2,10.2-15.4,15.2C104.4,146.7,103.7,146.6,103.4,146.6z"/>
<path d="M142.3,153.9c0.2,5.1-13.2,18.2-17.5,17.7c-3.2-0.4-5.7-3.3-4-5.4c4.7-5.8,10-11.3,15.8-15.9
	C139,148.5,141.8,151.4,142.3,153.9z"/>
<path d="M91.9,158.6c-0.8,1.7-1.1,3.2-1.9,4.1c-3.8,3.9-7.5,8.1-11.9,11.4c-1.6,1.2-4.7,0.2-7.2,0.3c0.1-2.4-0.8-5.6,0.4-7.2
	c3.3-4.3,7.3-8.2,11.5-11.7c1.3-1.1,4.1-1.2,5.9-0.7C90,155.1,90.9,157.2,91.9,158.6z"/>
<path d="M130.2,78c-18.8-0.4-37.7-0.7-56.6-1c-3.3-0.1-8.6,0.1-11.3-2.2c-2-1.7-1.7-5.4,0.3-6.9c2.7-2.2,8.8-1.5,12-1.4
	c38.4,0.9,76.9,1.7,115.3,2.6c12.7,0.3,21.3-11.3,17.4-23.2c-2.5-7.6-9.4-9.6-15.1-3.9c-2.7,2.8-4.4,6.6-6.3,10
	c-1.3,2.4-2.7,5.5-5.7,3.9c-1.7-0.9-3-4.3-2.8-6.5c0.6-9,8.7-18.2,17.4-20.6c10.6-2.9,21.1,4.3,23.3,16.2c3.3,17.8-8.7,36-29.3,35
	C169.3,79,149.7,78.5,130.2,78z"/>
<path d="M105.6,97.8c-18.8,0.4-37.7,0.7-56.6,1c-3.3,0.1-8.6-0.1-11.3,2.1c-2,1.7-1.7,5.1,0.3,6.6c2.7,2.1,8.8,1.4,12,1.4
	c38.4-0.8,76.9-1.7,115.3-2.5c12.7-0.3,21.3,10.8,17.4,22.3c-2.5,7.3-9.4,9.2-15.1,3.7c-2.7-2.7-4.4-6.3-6.3-9.6
	c-1.3-2.3-2.7-5.3-5.7-3.7c-1.7,0.9-3,4.1-2.8,6.2c0.6,8.6,8.7,17.5,17.4,19.8c10.6,2.8,21.1-4.1,23.3-15.5
	c3.3-17.1-8.7-34.6-29.3-33.6C144.7,96.9,125.2,97.4,105.6,97.8z"/>
</svg>
