<?xml version="1.0" encoding="utf-8"?>
<!-- Generator: Adobe Illustrator 26.1.0, SVG Export Plug-In . SVG Version: 6.00 Build 0)  -->
<svg version="1.1" id="Layer_1" xmlns="http://www.w3.org/2000/svg" xmlns:xlink="http://www.w3.org/1999/xlink" x="0px" y="0px"
	 viewBox="0 0 278.4 219" style="enable-background:new 0 0 278.4 219;" xml:space="preserve">
<path d="M191.5,68.2c8.5-0.7,16.2-1.9,23.9-1.8c7.4,0.1,13.6,4,19.3,8.7c1.1,0.9,2.4,2.5,2.3,3.6c-0.1,1.9-0.7,4.4-2.1,5.5
	c-1,0.8-4,0.4-5.2-0.5c-10.5-9.2-22-9.7-34.5-4.8c-8.6,3.4-11.8,1.4-13.2-8c-1.4-9.9-2.1-19.9-4-29.7c-4.7-24.1-25.2-36.7-48.9-30.7
	c-20,5.2-33.1,20.2-35.5,40.6c-0.3,3-1,5.9-1.8,8.8c-0.2,0.9-1.4,2.1-2.3,2.1c-0.8,0-2-1-2.6-1.8c-2-2.8-3.8-5.9-5.9-8.6
	c-5-6.7-10-7.9-18.5-5c-7.1,2.5-12.1,8.7-11.6,15.7c0.3,4,1.7,8.1,3.2,11.9c2.1,5.3,0.9,7.8-4.7,8.8c-3.6,0.6-7.2,1.3-10.8,2
	c-20.5,4.1-27.8,30.9-11.8,46.8c6.3,6.3,13.8,9.8,23.2,9.7c25-0.3,50-0.1,75,0c3.1,0,7.7-0.9,7.7,3.9c0,4.7-4,5.2-8,5.2
	c-26-0.1-52-0.1-78-0.2c-16.4-0.1-34.9-15.7-37-31.1C7,99.6,18,82,36.3,76.7c2.4-0.7,4.8-1.2,7.9-2C40,60,42.4,47.2,57,39.8
	c9.6-4.9,19.6-5.6,28.9,3.6c0.8-2.6,1.5-4.5,2.1-6.5c8.4-25.1,38.2-41.7,64-35.6c18.8,4.4,32.6,19.7,35.9,40.4
	C189.4,50.7,190.4,59.8,191.5,68.2z"/>
<path d="M161.4,87.4c1.4-7.1,3.4-13.8,3.9-20.6c0.6-6.9,0.2-13.9-0.7-20.8c-0.9-6.8-5.1-12.1-9.8-17c-0.9-1-1-2.8-1.4-4.3
	c1.6,0,3.5-0.6,4.6,0.1c9.1,5.1,15.3,12.8,16,23.2c0.9,13.1-1.8,25.8-9.4,37c-0.5,0.8-1.3,1.5-1.9,2.2
	C162.6,87.3,162.2,87.3,161.4,87.4z"/>
<path d="M44,90.1c-7.5,6-14.7,12.4-13.7,22.6c0.9,9.4,7.1,16.2,16.2,20.2c-0.2,0.6-0.4,1.1-0.6,1.7c-2.4,0.2-5,1-7,0.3
	c-10.3-3.5-18-19.1-13.9-29.1c1.7-4.1,5.4-7.7,8.9-10.7C36.8,92.8,40.6,91.7,44,90.1z"/>
<path d="M5.1,183.5c-3.7,0-6.5-3.7-4.4-6.5c4.1-5.3,9.1-10,14.1-14.5c0.9-0.8,4.2-0.3,5.3,0.8c1.2,1,2,4.4,1.3,5.2
	c-4.8,5.2-10,10-15.2,14.8C6.1,183.5,5.4,183.4,5.1,183.5z"/>
<path d="M83.2,190.5c-3.5,0.1-6.6-3.5-4.6-6c4.5-5.6,9.9-10.5,15.2-15.4c0.7-0.6,3.7,0.3,4.8,1.4c1,1.1,1.7,4.1,1,4.9
	c-4.8,5.2-10,10-15.1,14.9C84.1,190.5,83.5,190.4,83.2,190.5z"/>
<path d="M71,203.3c-0.2,0.6-0.4,1.9-1.1,2.7c-4.2,4.2-8.3,8.6-13,12.3c-1.3,1-4.9,0.7-6.1-0.4c-1.2-1.1-1.5-4.9-0.5-6.1
	c3.9-4.7,8.1-9.3,12.9-13.1C66.5,196,71,198.7,71,203.3z"/>
<path d="M121.9,196.8c0.3,6-13.3,19.5-17.4,18.4c-1.7-0.4-3.9-3.1-4.1-5c-0.3-3.9,12.5-16.7,16.2-16.3
	C118.7,194.1,120.7,196.1,121.9,196.8z"/>
<path d="M40.3,189.4c-3.9,0.2-6.8-3.8-4.4-6.8c4-5.2,8.9-9.8,13.8-14.1c1-0.9,4.4-0.2,5.7,0.9c1.1,0.9,1.8,4.4,1,5.2
	c-4.7,5.1-9.8,9.7-14.8,14.5C41.3,189.4,40.6,189.4,40.3,189.4z"/>
<path d="M162.4,128.5c-14.6-0.3-29.3-0.5-43.9-0.8c-2.6,0-6.7,0.1-8.8-1.7c-1.6-1.3-1.3-4.2,0.2-5.4c2.1-1.7,6.8-1.2,9.3-1.1
	c29.8,0.7,59.7,1.4,89.5,2c9.9,0.2,16.5-8.8,13.5-18c-1.9-5.9-7.3-7.5-11.7-3c-2.1,2.2-3.4,5.1-4.9,7.8c-1,1.9-2.1,4.3-4.4,3
	c-1.3-0.7-2.3-3.3-2.2-5c0.5-7,6.8-14.1,13.5-16c8.2-2.3,16.4,3.3,18.1,12.6c2.6,13.8-6.8,27.9-22.7,27.2
	C192.7,129.2,177.5,128.8,162.4,128.5z"/>
<path d="M209.7,150.4c-14.6-0.3-29.3-0.5-43.9-0.8c-2.6,0-6.7,0.1-8.8-1.7c-1.6-1.3-1.3-4.2,0.2-5.4c2.1-1.7,6.8-1.2,9.3-1.1
	c29.8,0.7,59.7,1.4,89.5,2c9.9,0.2,16.5-8.8,13.5-18c-1.9-5.9-7.3-7.5-11.7-3c-2.1,2.2-3.4,5.1-4.9,7.8c-1,1.9-2.1,4.3-4.4,3
	c-1.3-0.7-2.3-3.3-2.2-5c0.5-7,6.8-14.1,13.5-16c8.2-2.3,16.4,3.3,18.1,12.6c2.6,13.8-6.8,27.9-22.7,27.2
	C240.1,151.2,224.9,150.7,209.7,150.4z"/>
<path d="M190.6,165.8c-14.6,0.3-29.3,0.5-43.9,0.8c-2.6,0-6.7-0.1-8.8,1.6c-1.6,1.3-1.3,4,0.2,5.1c2.1,1.6,6.8,1.1,9.3,1.1
	c29.8-0.7,59.7-1.3,89.5-1.9c9.9-0.2,16.5,8.4,13.5,17.3c-1.9,5.7-7.3,7.2-11.7,2.9c-2.1-2.1-3.4-4.9-4.9-7.5
	c-1-1.8-2.1-4.1-4.4-2.9c-1.3,0.7-2.3,3.2-2.2,4.8c0.5,6.7,6.8,13.6,13.5,15.3c8.2,2.2,16.4-3.2,18.1-12.1
	c2.6-13.3-6.8-26.8-22.7-26.1C221,165,205.8,165.4,190.6,165.8z"/>
</svg>
