<?xml version="1.0" encoding="utf-8"?>
<!-- Generator: Adobe Illustrator 26.1.0, SVG Export Plug-In . SVG Version: 6.00 Build 0)  -->
<svg version="1.1" id="Layer_1" xmlns="http://www.w3.org/2000/svg" xmlns:xlink="http://www.w3.org/1999/xlink" x="0px" y="0px"
	 viewBox="0 0 238.9 150.4" style="enable-background:new 0 0 238.9 150.4;" xml:space="preserve">
<path d="M151.6,87.1c1.4-6.8,3.3-13.5,3.9-20.3c0.6-6.6,0.2-13.3-0.5-19.8c-0.8-7.2-5-12.9-10-18c-0.9-1-1-2.8-1.4-4.3
	c1.6,0,3.4-0.6,4.6,0.1c8.8,4.8,14.9,12.3,15.9,22.3c1.3,13.7-1.6,26.8-9.5,38.4c-0.6,0.9-0.9,2.1-1.4,3.2
	C152.7,88.1,152.2,87.6,151.6,87.1z"/>
<path d="M34.2,90.1c-7.5,6-14.6,12.4-13.7,22.6c0.9,9.4,7,16.3,16.2,20.2c-0.2,0.6-0.3,1.1-0.5,1.7c-2.4,0.2-5,1.1-7,0.4
	c-10.3-3.5-18-19.1-13.9-29.1c1.7-4.1,5.4-7.7,8.9-10.7C26.9,92.8,30.8,91.7,34.2,90.1z"/>
<path d="M35,74.6c-4.4-14.1-2.2-26.2,10.8-33.8c9.8-5.7,19.5-7.2,30.7,2.3c0.7-2.2,1.3-4.2,2-6.1c8.5-25.2,38.3-41.8,64.1-35.7
	c18.8,4.4,32.6,19.8,35.9,40.4c1.5,9,2.4,18.1,3.7,27.8c2.1-0.6,3.8-1,5.5-1.5c25.6-7.4,47.5,6.8,50.6,33.2
	c0.7,5.7,0.7,11.7-0.2,17.4c-2.6,16.7-11.8,25.9-29,29.4c-5.7,1.2-11.5,2.1-17.3,2.1c-51.8,0.2-103.6,0.3-155.5,0.2
	c-15.9,0-33.9-16-36-31.1C-2.3,100,8.4,82.4,26.1,77C28.7,76.2,31.5,75.5,35,74.6z M180.9,141.3c11.8,1.4,21-1,30-4.1
	c9.9-3.4,16.9-10.1,17.3-20.9c0.3-7.8-0.6-15.9-2.5-23.6c-0.9-4-4.5-7.8-7.8-10.6c-9.5-8.2-20.4-7.7-31.5-3.5
	c-9.7,3.6-12.5,1.9-13.9-8.5c-1.1-8.2-2-16.5-3.1-24.8c-2.7-20.2-15.5-33.8-33.7-36.1c-24.3-3-48.4,16.1-51.4,40.6
	c-0.3,2.8-0.5,5.7-1.2,8.4c-0.4,1.4-1.7,2.6-2.7,3.8c-1.1-1-2.5-1.9-3.4-3.1c-2.6-3.2-4.6-7-7.5-9.8c-2.1-2-5.4-3.6-8.3-3.8
	C46,44.8,37.3,58.1,43.5,71.9c4.1,9,3.3,10.1-6.6,11.6c-3.9,0.6-7.8,1.7-11.6,2.9c-6,1.9-10.1,6-13.1,11.6
	c-12,22.7,9.8,43.6,26.8,43.5C87,141,135,141.3,180.9,141.3z"/>
</svg>
