<?xml version="1.0" encoding="utf-8"?>
<!-- Generator: Adobe Illustrator 26.1.0, SVG Export Plug-In . SVG Version: 6.00 Build 0)  -->
<svg version="1.1" id="Layer_1" xmlns="http://www.w3.org/2000/svg" xmlns:xlink="http://www.w3.org/1999/xlink" x="0px" y="0px"
	 viewBox="0 0 285.1 188.5" style="enable-background:new 0 0 285.1 188.5;" xml:space="preserve">
<path d="M238.8,136.7c0,5.6,0.3,10.6-0.1,15.6c-1.4,18.8-10.7,29.7-29.1,33.7c-5.7,1.2-11.5,2.2-17.3,2.2c-52,0.2-104,0.3-156,0.2
	c-15.9,0-33.9-16.1-36-31.2c-2.6-19.3,8-36.8,25.7-42.2c2.7-0.8,5.4-1.5,8.8-2.3c-4.2-14.3-2.2-27,11.9-34.3
	c11.7-6.1,19.3-5.7,29.9,2.8c4.5-19.2,16.7-31.7,34.3-38.9c18-7.4,35.2-5.7,51.3,6.8c0.8-2.4,1.5-4.4,2.3-6.4
	c9.2-23.3,25.7-38,50.7-42.5c2.8-0.5,6,0,8.8,0.9c3.7,1.2,4.1,4.2,1.3,6.9c-0.5,0.5-1,0.8-1.6,1.2c-27.1,15.9-30,49.8-10.5,73.1
	c16.4,19.8,37.6,27.3,63.1,20.9c0.6-0.2,1.3-0.6,1.9-0.5c2.3,0.4,5.6,0.2,6.5,1.6c0.9,1.4,0.1,5-1.2,6.5c-3.9,4.5-8.1,8.9-12.8,12.6
	c-8.1,6.4-17.5,10.3-27.6,12.3C241.7,136,240.3,136.4,238.8,136.7z M113.2,179.4c0,0.1,0,0.2,0,0.3c22.6,0,45.3-0.3,67.9,0.2
	c10.2,0.2,19.9-1.1,29.4-4.4c10.4-3.6,17.2-10.5,17.8-21.7c0.3-7.2-0.2-14.7-2.1-21.6c-1.3-4.6-5-9-8.7-12.2
	c-9.6-8.2-20.5-7.1-31.6-2.9c-8.7,3.3-11.9,1.4-13.2-7.9c-1.2-8.6-2.1-17.2-3.2-25.8c-2.5-18.5-13.6-31.7-29.9-35.3
	c-20.8-4.7-45.9,9.2-52.5,29.5c-1.8,5.5-2.2,11.4-3.5,17.1c-0.5,2-2.1,3.8-3.2,5.6c-1.2-1.4-2.6-2.7-3.7-4.1
	c-4.1-5.1-6.8-11.9-14.5-12.6C47.1,82,37.5,95.3,43.1,109.2c4.4,10.6,4.3,10.6-7.4,12.6c-9.4,1.6-18.2,4.2-23.1,13.6
	c-10.5,20,3.9,44,26.6,44.1C63.9,179.5,88.5,179.4,113.2,179.4z M207.4,9.5c-20.4,8.9-32.9,23.6-37.5,44.9c-0.3,1.5,0,3.5,0.9,4.7
	c5.9,9.1,8,19.3,9.1,29.8c0.7,6.2,1.6,12.4,2.4,18.8c2-0.5,3.1-0.8,4.2-1.2c21-6.3,37.1,0.1,48.4,18.9c0.7,1.2,3.5,2.3,4.7,1.9
	c7.2-2.3,14.4-5,21.4-7.9c2.1-0.8,3.7-2.7,6.6-4.8c-2.7,0-3.9,0-5,0c-18.3,0.2-34.3-5.8-48-17.8c-20.9-18.3-28.2-46.2-17.8-69.6
	C199.4,21,203.5,15.7,207.4,9.5z"/>
<path d="M152,125.3c1.4-6.8,3.2-13.5,3.9-20.3c0.7-5.7,0.5-11.6,0-17.4c-0.7-7.7-4.2-14.2-9.7-19.7c-1.2-1.2-1.5-3.3-2.2-5
	c2,0.2,4.4-0.3,5.9,0.6c8.1,5.1,14,12.3,14.7,22c1,13.5-1.7,26.4-9.5,37.9c-0.6,0.9-1.1,2-1.7,3C153,126,152.5,125.6,152,125.3z"/>
<path d="M37.6,171.5c-5.2,3.2-8.7,2-11.9-0.8c-6.8-6-12.6-12.6-11.4-22.5C15.7,136.1,25,132,35,128.7c-7.6,5.4-14.7,11.6-14.1,21.6
	C21.5,160.1,28.1,166.7,37.6,171.5z"/>
</svg>
