<?xml version="1.0" encoding="utf-8"?>
<!-- Generator: Adobe Illustrator 26.1.0, SVG Export Plug-In . SVG Version: 6.00 Build 0)  -->
<svg version="1.1" id="Layer_1" xmlns="http://www.w3.org/2000/svg" xmlns:xlink="http://www.w3.org/1999/xlink" x="0px" y="0px"
	 viewBox="0 0 239 229.3" style="enable-background:new 0 0 239 229.3;" xml:space="preserve">
<path d="M182.5,69.4c4.5-1.1,8.2-2.3,11.9-2.8c23-3.4,41.4,11.1,44,35c0.6,5.7,0.8,11.8-0.3,17.4c-4.1,20.6-13.3,25-29.2,29.2
	c-6,1.6-12.5,2.1-18.8,2.1c-51.2,0.2-102.3,0.3-153.5,0.2c-15.9,0-34-15.8-36.2-30.9c-2.8-19.1,7.8-36.9,25.4-42.4
	c2.8-0.9,5.7-1.6,9.1-2.5c-4.2-13.8-2.1-25.7,10.6-33.8c10.2-6.4,18.9-5.6,31,2c0.6-2,1.2-3.8,1.8-5.7C87,11.7,116.9-5.1,142.9,1.4
	c20.7,5.2,31.7,19.8,35.6,40.1c1.5,7.7,2.1,15.5,3.1,23.3C181.8,66.2,182.1,67.6,182.5,69.4z M180.9,141.4c11.8,1.4,21-1,30-4.1
	c9.9-3.4,16.9-10.1,17.3-20.9c0.3-7.8-0.6-15.9-2.5-23.6c-0.9-4-4.5-7.8-7.8-10.6c-9.5-8.2-20.4-7.7-31.5-3.5
	c-9.7,3.6-12.5,1.9-13.9-8.5c-1.1-8.3-2-16.5-3.1-24.8c-2.7-20.2-15.5-33.8-33.7-36.1c-24.3-3-48.4,16.1-51.4,40.6
	c-0.3,2.8-0.5,5.7-1.2,8.4c-0.4,1.4-1.7,2.6-2.6,3.8c-1.1-1-2.5-1.9-3.4-3.1c-2.6-3.2-4.4-7.3-7.6-9.8c-2.7-2.2-6.8-3.9-10.2-3.7
	C44.6,46.3,37.4,59,43.7,72.3c3.9,8.2,2.9,9.7-6.3,11.2C32.9,84.2,28,85,24,87.1c-4,2.1-7.9,5.2-10.4,8.9
	c-6.4,9.5-6.7,19.8-0.7,29.7c5.9,9.6,14.3,15.7,26.1,15.7C87,141.4,135,141.4,180.9,141.4z"/>
<path d="M103.1,176.4c-0.4,8.1-4.4,13.9-11.4,16c-8.5,2.6-19.3-0.3-23.1-6.4c-3.5-5.7-2.3-11.3,1.1-16.4c3.9-5.8,9.6-9.2,16.1-11.1
	c7.6-2.2,12.2,0.5,15.3,9.1C102.3,170.4,102.5,173.5,103.1,176.4z M83.6,184.5c5.1-0.8,8.9-2.3,9.4-7.2c0.4-3.7-0.3-7.6-1.1-11.3
	c-0.2-0.8-3.1-2-4-1.5c-3.2,1.7-6.5,3.7-8.8,6.4c-1.9,2.3-3.8,6.2-3.1,8.6C76.7,181.8,80.9,182.9,83.6,184.5z"/>
<path d="M130.1,211.9c-0.2,8.4-4.2,14.3-11.4,16.5c-8.3,2.5-18.9-0.3-22.8-6c-3.2-4.7-3-11.3,0.9-16.8c4-5.7,9.6-9.2,16.2-11
	c7.6-2.1,12.1,0.6,15.3,9.2C129.3,206.3,129.5,209.2,130.1,211.9z M110.6,220.4c5.8-0.9,9-2.4,9.2-6.5c0.2-4.6-1.3-9.2-2-13.8
	c-3.2,1.5-6.4,3-9.5,4.6c-1,0.5-2.1,1.4-2.5,2.4c-1.2,2.9-3.3,6.3-2.5,8.8C103.8,218,108,219,110.6,220.4z"/>
<path d="M168.1,182.4c-0.4,8.1-4.4,13.9-11.4,16c-8.6,2.6-19.3-0.4-23-6.5c-3.5-5.7-2.3-11.3,1.2-16.4c3.9-5.7,9.6-9.2,16.1-11
	c7.6-2.1,12.1,0.6,15.3,9.2C167.3,176.5,167.5,179.5,168.1,182.4z M148.8,190.5c4.6-0.9,8.6-2,8.8-6.4c0.3-4.6-1.1-9.3-1.8-13.9
	c-3.2,1.5-6.4,2.8-9.5,4.4c-0.9,0.4-1.8,1.2-2.2,2c-1.3,3-3.7,6.5-3.1,9.2C141.7,187.8,146.1,188.9,148.8,190.5z"/>
<path d="M205.7,175.6c0,7-4.3,11.3-11.5,11.3c-7.4,0-12.4-3.9-12.3-9.5c0.1-6.4,8.2-13.6,15.4-13.8
	C201.9,163.5,205.6,168.8,205.7,175.6z M198.3,166.3c-3.4,2.4-6.1,3.6-8,5.7c-1.4,1.5-1.6,4-2.4,6c2.4,0.8,4.8,2.3,7.1,2.1
	c1.6-0.2,3.8-2.6,4.2-4.4C199.7,173.2,198.8,170.3,198.3,166.3z"/>
<path d="M56.7,170.8c0,7-4.5,11.2-11.7,11.1c-7.2-0.1-12-3.8-12.1-9.2c-0.1-6.5,8.2-14,15.6-14.1C53.1,158.6,56.7,164,56.7,170.8z
	 M49.4,162.8c-0.6-0.3-1.2-0.6-1.7-0.9c-2.7,2.4-5.7,4.6-8,7.4c-0.8,0.9-0.2,4.6,0.5,4.9c2.3,0.8,5.2,1.3,7.5,0.5
	c1.4-0.4,2.5-3.3,2.7-5.2C50.6,167.3,49.8,165,49.4,162.8z"/>
<path d="M151.7,87.1c0.4-1.5,0.8-3,1.1-4.5c1.3-8,3.2-16,3.7-24c0.8-11-2.1-21.1-10.4-29.1c-1.2-1.1-1.3-3.3-1.9-5
	c1.9,0.2,4.1-0.2,5.5,0.7c8.5,5.2,14.5,12.8,15,22.8c0.7,13-1.8,25.5-9.2,36.5c-0.8,1.1-1.8,2.1-2.7,3.1
	C152.4,87.5,152.1,87.3,151.7,87.1z"/>
<path d="M34.7,90.2c-7.5,5.9-14.6,12.3-13.7,22.5c0.8,9.5,7.3,16.1,16,20.3c-0.1,0.5-0.2,1-0.3,1.5c-2.3,0.2-4.9,1.1-7,0.4
	c-10-3.4-17.4-18.6-14.3-28.7c1.6-5.3,4.7-9.1,9.6-11.5C28.1,93.2,31.4,91.7,34.7,90.2z"/>
</svg>
