<?xml version="1.0" encoding="utf-8"?>
<!-- Generator: Adobe Illustrator 26.1.0, SVG Export Plug-In . SVG Version: 6.00 Build 0)  -->
<svg version="1.1" id="Layer_1" xmlns="http://www.w3.org/2000/svg" xmlns:xlink="http://www.w3.org/1999/xlink" x="0px" y="0px"
	 viewBox="0 0 269 206" style="enable-background:new 0 0 269 206;" xml:space="preserve">
<path d="M35,74.6c-4.2-13.8-2.1-25.8,10.6-33.8c10.2-6.4,19-5.6,31,2.1c0.6-2,1.2-3.8,1.8-5.7C87,11.8,116.9-5.1,142.9,1.4
	c20.7,5.2,31.7,19.7,35.6,40.1c1.5,7.7,2.1,15.5,3.1,23.3c0.2,1.4,0.5,2.9,0.8,4.3c5.6-1,10.7-2.3,15.9-2.9
	c10-1.1,18.8,2.1,26.3,8.6c1.8,1.5,2.9,4.9,2.7,7.2c-0.3,3.3-4.3,4.3-6.9,1.9c-10.8-9.7-22.6-9.9-35.4-4.7c-7.5,3.1-11,1-12.2-7
	c-1.4-8.9-2.2-17.8-3.4-26.8C166.6,23.9,152.1,9.8,132.3,9c-23.3-0.9-45.2,17.8-48,40.9c-0.4,3-0.7,6-1.4,8.8
	c-0.3,1.2-1.6,2.2-2.5,3.4c-1.1-0.9-2.3-1.6-3.2-2.7c-2-2.6-3.6-5.5-5.7-8.1c-5-6.3-9.9-7.5-18.2-4.7c-6.9,2.3-12.1,8.4-11.7,15.1
	c0.2,4.2,1.6,8.4,3.1,12.4c2.2,5.6,1.1,8.1-4.9,9c-3.3,0.5-6.6,1.1-9.8,1.7c-11.3,2.4-18,9.6-20.5,20.7c-2.4,10.7,1.1,19.8,9,27.1
	c6.1,5.7,13.2,8.9,22.1,8.8c24.8-0.3,49.6-0.1,74.5,0c3.3,0,7.6-1.2,8.5,3.7c0.6,3.4-2.8,5.4-8.4,5.4c-26,0-52,0-78-0.2
	c-16.2,0-34.5-15.5-36.7-30.8C-2.4,100.1,8.4,82.4,26.4,77C29,76.1,31.8,75.5,35,74.6z"/>
<path d="M151.6,87.6c0.5-2,0.9-3.4,1.2-5c1.3-8.5,3.2-17,3.7-25.5c0.6-10.3-2.4-19.7-10.1-27.2c-1.3-1.2-1.5-3.5-2.2-5.3
	c2,0.3,4.4-0.1,6,0.9c7.9,5.1,13.7,12.2,14.5,21.6c1.1,13.5-1.7,26.4-9.4,37.9c-0.5,0.7-1,1.4-1.6,1.9
	C153.4,87.3,152.8,87.3,151.6,87.6z"/>
<path d="M36.8,133.8c-7.1,3.4-16-2.6-20.9-13.6c-5.7-12.9,0.3-22.5,19.2-30c-3.6,3.4-7.3,5.9-9.6,9.4c-2.4,3.8-4.7,8.5-4.6,12.7
	c0.1,4.1,2.6,8.6,5.1,12.1C28.9,128,33,130.5,36.8,133.8z"/>
<path d="M153.1,128.4c-14.6-0.3-29.3-0.5-43.9-0.8c-2.6,0-6.7,0.1-8.8-1.7c-1.6-1.3-1.3-4.2,0.2-5.4c2.1-1.7,6.8-1.2,9.3-1.1
	c29.8,0.7,59.7,1.4,89.5,2c9.9,0.2,16.5-8.8,13.5-18c-1.9-5.9-7.3-7.5-11.7-3c-2.1,2.2-3.4,5.1-4.9,7.8c-1,1.9-2.1,4.3-4.4,3
	c-1.3-0.7-2.3-3.3-2.2-5c0.5-7,6.8-14.1,13.5-16c8.2-2.3,16.4,3.3,18.1,12.6c2.6,13.8-6.8,27.9-22.7,27.2
	C183.4,129.1,168.2,128.7,153.1,128.4z"/>
<path d="M200.4,150.3c-14.6-0.3-29.3-0.5-43.9-0.8c-2.6,0-6.7,0.1-8.8-1.7c-1.6-1.3-1.3-4.2,0.2-5.4c2.1-1.7,6.8-1.2,9.3-1.1
	c29.8,0.7,59.7,1.4,89.5,2c9.9,0.2,16.5-8.8,13.5-18c-1.9-5.9-7.3-7.5-11.7-3c-2.1,2.2-3.4,5.1-4.9,7.8c-1,1.9-2.1,4.3-4.4,3
	c-1.3-0.7-2.3-3.3-2.2-5c0.5-7,6.8-14.1,13.5-16c8.2-2.3,16.4,3.3,18.1,12.6c2.6,13.8-6.8,27.9-22.7,27.2
	C230.8,151.1,215.6,150.6,200.4,150.3z"/>
<path d="M181.3,165.7c-14.6,0.3-29.3,0.5-43.9,0.8c-2.6,0-6.7-0.1-8.8,1.6c-1.6,1.3-1.3,4,0.2,5.1c2.1,1.6,6.8,1.1,9.3,1.1
	c29.8-0.7,59.7-1.3,89.5-1.9c9.9-0.2,16.5,8.4,13.5,17.3c-1.9,5.7-7.3,7.2-11.7,2.9c-2.1-2.1-3.4-4.9-4.9-7.5
	c-1-1.8-2.1-4.1-4.4-2.9c-1.3,0.7-2.3,3.2-2.2,4.8c0.5,6.7,6.8,13.6,13.5,15.3c8.2,2.2,16.4-3.2,18.1-12.1
	c2.6-13.3-6.8-26.8-22.7-26.1C211.7,164.9,196.5,165.3,181.3,165.7z"/>
</svg>
