<?xml version="1.0" encoding="utf-8"?>
<!-- Generator: Adobe Illustrator 26.1.0, SVG Export Plug-In . SVG Version: 6.00 Build 0)  -->
<svg version="1.1" id="Layer_1" xmlns="http://www.w3.org/2000/svg" xmlns:xlink="http://www.w3.org/1999/xlink" x="0px" y="0px"
	 viewBox="0 0 238.6 208.5" style="enable-background:new 0 0 238.6 208.5;" xml:space="preserve">
<path d="M182.2,69.3c4.6-1.1,8.5-2.3,12.4-2.8c22.9-3.1,40.9,11.2,43.6,34.9c0.6,5.6,0.6,11.4-0.1,16.9c-2.2,16-11.7,25.6-27.3,29.3
	c-3.4,0.8-6.9,1.3-10.3,2c-3.5,0.7-7,0.1-7.6-3.6c-0.6-3.6,2.7-4.6,5.8-5.5c5.4-1.5,10.9-3.1,16.1-5.2c9.1-3.7,12.8-11.4,13.4-20.6
	c0.4-5.3,0.1-10.7-0.9-15.9c-3.2-16.8-16.9-25.6-33.6-22.2c-3.2,0.7-6.4,1.9-9.5,2.9c-6.9,2.3-10.2,0.7-11.4-6.6
	c-1.5-9.2-2.3-18.5-3.6-27.7c-2.9-21.5-17.6-35.9-37.4-36.2C113.4,8.8,87.3,21.2,84,50.2c-0.4,3.1-0.9,6.3-1.7,9.3
	c-0.3,1-1.6,2.5-2.4,2.5c-0.9,0-2.1-1.3-2.8-2.2c-1.7-2.2-3-4.7-4.7-7c-6.2-8.1-12.6-9.6-21.8-5.1c-7.4,3.6-10.9,11.6-8.6,20.3
	c0.6,2.4,1.9,4.6,2.8,6.9c2,4.7,0.6,7.3-4.4,8.2c-3.3,0.6-6.6,1-9.8,1.7C18,87.2,10.8,95.1,9,107.3c-1.8,11.7,3.1,21,12.5,28.1
	c6.6,5,14,6.5,22.1,6c3.7-0.3,8.8-0.8,8.6,4.8c-0.2,4.9-5.1,4.1-8.7,4.3c-13.3,0.8-23.9-4.1-33.7-13.1C-9,120.1,1.3,83.7,23.6,77.7
	c3.5-0.9,7-2,11.1-3.1c-4.2-13.9-2.2-26.2,11.1-33.9c10-5.7,20.6-6.9,30.4,2.7c0.8-2.5,1.4-4.3,2-6.1c8.5-25.5,38.4-42.4,64.4-35.9
	c20.7,5.2,31.7,19.7,35.6,40c1.5,7.7,2.1,15.5,3.1,23.3C181.5,66.2,181.9,67.6,182.2,69.3z"/>
<path d="M152.9,185.3c-0.3,8.1-4.3,13.9-11.3,16.1c-8.5,2.6-19.3-0.3-23.1-6.3c-3.5-5.6-2.4-11.2,1-16.4c4-5.9,9.8-9.5,16.6-11.2
	c7.5-2,11.7,0.6,14.9,9.1C152,179.3,152.3,182.4,152.9,185.3z M133.8,193.4c4.6-0.9,8.5-2.1,8.7-6.5c0.2-4.6-1.2-9.2-2-13.9
	c-3,1.4-6.1,2.8-9.1,4.3c-1,0.5-2.1,1.4-2.6,2.3c-1.3,3-3.7,6.6-2.9,9.2C126.5,191,131,192,133.8,193.4z"/>
<path d="M114.9,158.3c-0.3,8.1-4.3,13.9-11.3,16.1c-8.5,2.6-19.3-0.2-23.1-6.3c-3.5-5.6-2.4-11.2,1-16.4c4-5.9,9.8-9.5,16.6-11.2
	c7.5-2,11.7,0.6,14.9,9.1C114,152.3,114.3,155.4,114.9,158.3z M95.7,166.4c4.6-0.9,8.5-2,8.8-6.4c0.2-4.6-1.2-9.3-1.9-13.9
	c-3,1.4-6.1,2.7-9.1,4.2c-1,0.5-2.1,1.3-2.6,2.3c-1.3,3-3.7,6.5-3,9.2C88.5,163.9,92.9,164.9,95.7,166.4z"/>
<path d="M166.9,139.3c-0.3,8.1-4.3,13.9-11.3,16.1c-8.5,2.6-19.2-0.3-23.1-6.3c-3.1-4.8-2.7-11.4,1.3-16.8
	c4.1-5.6,9.7-9.1,16.3-10.8c7.5-1.9,11.7,0.6,14.9,9.1C166,133.3,166.3,136.4,166.9,139.3z M147.6,147.5c4.6-0.9,8.6-2,8.8-6.4
	c0.3-4.6-1.2-9.3-1.8-13.9c-3,1.4-6.1,2.7-9.1,4.1c-1,0.5-2.1,1.3-2.6,2.3c-1.3,3-3.7,6.5-3,9.1
	C140.4,144.9,144.9,145.9,147.6,147.5z"/>
<path d="M151.3,87.6c0.5-2.1,1.1-3.8,1.4-5.4c1.3-8.7,3.2-17.3,3.6-26c0.5-9.9-2.7-19-10.1-26.2c-1.3-1.2-1.5-3.5-2.2-5.3
	c2,0.3,4.4,0,6,0.9c7.9,5.1,13.7,12.2,14.5,21.6c1.1,13.5-1.7,26.4-9.4,37.9c-0.5,0.7-1,1.4-1.6,1.9
	C153.1,87.3,152.5,87.3,151.3,87.6z"/>
<path d="M37.7,133.4c-6.5,3.8-10.4,1.2-13.8-2.2c-6.2-6.2-11.6-12.9-9.5-22.7c2.3-11.2,11.2-14.6,20.4-17.8
	c-7.7,5.4-14.9,11.7-14.1,21.8C21.4,122.1,27.8,128.9,37.7,133.4z"/>
<path d="M171.6,179.5c-3.9,0.1-6.7-3.9-4.3-6.9c4.1-5.2,9-9.7,13.9-14.1c0.9-0.8,4.2-0.4,5.3,0.7c1.2,1,2.1,4.4,1.4,5.1
	c-4.8,5.2-10,10-15.1,14.9C172.6,179.5,171.9,179.4,171.6,179.5z"/>
<path d="M68.4,187.3c-0.2,0.6-0.4,1.9-1.1,2.7c-4.2,4.2-8.3,8.6-13,12.3c-1.3,1-4.9,0.7-6.1-0.4c-1.2-1.1-1.5-4.9-0.5-6.1
	c3.9-4.7,8.1-9.3,12.9-13.1C63.9,180,68.4,182.7,68.4,187.3z"/>
<path d="M91.7,208.5c-3.9,0.2-6.8-3.8-4.4-6.8c4-5.2,8.9-9.8,13.8-14.1c1-0.9,4.4-0.2,5.7,0.9c1.1,0.9,1.8,4.4,1,5.2
	c-4.7,5.1-9.8,9.7-14.8,14.5C92.6,208.5,92,208.4,91.7,208.5z"/>
</svg>
