<?xml version="1.0" encoding="utf-8"?>
<!-- Generator: Adobe Illustrator 26.1.0, SVG Export Plug-In . SVG Version: 6.00 Build 0)  -->
<svg version="1.1" id="Layer_1" xmlns="http://www.w3.org/2000/svg" xmlns:xlink="http://www.w3.org/1999/xlink" x="0px" y="0px"
	 viewBox="0 0 268.6 245.1" style="enable-background:new 0 0 268.6 245.1;" xml:space="preserve">
<path d="M181.1,163.2c8.9-0.9,16.3-2.6,23.6-2.1c13.6,0.9,23.9,8.2,29.8,20.5c4.9,10.3,5.7,21.5,3.7,32.8
	c-2.8,16.4-13.3,25.1-28.9,28.4c-5.8,1.2-11.9,2.1-17.8,2.1c-51.6,0.2-103.3,0.3-154.9,0.2c-15.9,0-33.9-15.9-36.1-31
	c-2.7-19.2,7.9-36.9,25.5-42.3c2.8-0.9,5.7-1.6,9-2.5c-4.2-13.7-2.3-25.8,10.3-33.5c10.2-6.2,21-7.4,31.1,2c0.6-1.7,1.1-2.9,1.5-4.1
	c3.3-11.1,9.7-19.9,18.9-26.9c2-1.5,3.9-4.3,4.3-6.7c4.8-27.2,31.8-47.2,57.7-45.6c29.4,1.9,52.1,23.7,53.7,52.7
	c1.2,22-8.1,39.3-26.6,51.6C184.3,159.8,183.1,161.3,181.1,163.2z M180.9,236c11.7,1.4,20.9-1,29.9-4.1c9.9-3.4,16.8-10.1,17.3-20.9
	c0.4-7.7-0.4-15.7-2.3-23.1c-1.1-4.3-4.8-8.4-8.3-11.4c-9.4-8-20.2-7.3-31.1-3.2c-9.7,3.6-12.5,1.9-13.9-8.5
	c-1.1-8.2-2-16.5-3.1-24.8c-2.9-21.5-17.3-35.7-37.2-36.4c-23.3-0.9-45.1,17.7-47.9,40.9c-0.3,2.8-0.5,5.7-1.2,8.4
	c-0.4,1.4-1.7,2.6-2.7,3.8c-1.1-1-2.5-1.9-3.4-3.1c-2.6-3.2-4.4-7.3-7.6-9.8c-2.7-2.2-6.8-3.9-10.2-3.7
	C44.6,141,37.4,153.7,43.7,167c3.9,8.2,2.9,9.8-6.3,11.1c-4.1,0.6-8.1,1.7-12.1,2.9c-6,1.9-10.1,6-13.1,11.6
	c-12,22.6,9.7,43.6,26.8,43.5C87,235.8,135,236,180.9,236z M132,94.2c34.4,3.5,46.5,25.9,48.6,56.6c17.7-7.5,27.9-32.1,22.4-52.8
	c-6.1-23-28.4-38.2-51.9-35.5c-25,2.9-39.1,23-40.1,35.8c6.2-0.8,10.8-2.9,13.7-9.3c3.9-8.6,10.9-14.7,20.2-17.4
	c2.2-0.6,4.9,0.5,7.4,0.8c-1.6,1.7-2.8,3.7-4.7,4.9C141,81.4,135.5,86.4,132,94.2z"/>
<path d="M161,20.3c0,4.5,0.1,9,0,13.4c-0.1,3.3-0.8,6.7-5,6.7c-3.8,0.1-5-3-5.2-6.1c-0.5-9.4-0.9-18.9-1.1-28.3
	c-0.1-3.3,1.5-6,5.2-6c3.7-0.1,5.2,2.6,5.4,5.9c0.2,4.8,0.1,9.6,0.1,14.4C160.6,20.3,160.8,20.3,161,20.3z"/>
<path d="M238.6,33.5c-1.4,2.2-2.3,4.2-3.7,5.7c-5.9,6.3-11.9,12.4-18,18.6c-0.9,0.9-2,2.2-3.1,2.3c-1.9,0.2-4.5,0.4-5.8-0.7
	c-1-0.8-0.9-3.8-0.2-5.3c1-2.2,2.9-4,4.6-5.8c5.4-5.8,10.8-11.7,16.5-17.2c1.4-1.3,4.2-1.9,6.2-1.7
	C236.2,29.6,237.2,31.9,238.6,33.5z"/>
<path d="M249,116.3c-6.3,0-10.9,0.4-15.3-0.2c-2.1-0.3-5.3-2.3-5.7-4.1c-0.8-3.5,2.4-4.8,5.4-4.9c9.8-0.5,19.6-1,29.4-1
	c1.9,0,5,2.4,5.5,4.2c0.9,3.4-2.1,4.8-5.2,5.1C257.9,115.8,252.6,116,249,116.3z"/>
<path d="M107.1,57.2c-1,1.4-1.8,3.5-3,3.7c-1.9,0.4-4.6,0.3-6-0.8c-3.7-3-7-6.6-10.4-10c-3.4-3.4-6.9-6.7-10.2-10.2
	c-2.2-2.3-3.1-5-0.6-7.5c2.4-2.5,5.3-2,7.5,0.2c6.8,6.6,13.5,13.3,20.1,20.1C105.6,53.7,106.1,55.4,107.1,57.2z"/>
<path d="M64.2,116c-4.8,0-9.6,0.1-14.4-0.1c-2.8-0.1-5.9-1.2-5.1-4.5c0.4-1.7,3.2-4,5.1-4.1c9.4-0.5,18.9-0.6,28.4-0.3
	c2,0.1,5.1,2.4,5.5,4.2c0.8,3.5-2.4,4.7-5.4,4.9c-4.6,0.2-9.3,0-13.9,0C64.2,116.1,64.2,116.1,64.2,116z"/>
<path d="M151.6,182.3c0.5-2,1-3.4,1.2-5c1.3-8.7,3.2-17.3,3.7-26c0.6-10.1-2.5-19.3-10.1-26.7c-1.3-1.2-1.5-3.5-2.2-5.3
	c2,0.3,4.4,0,6,1c7.9,5.1,13.7,12.2,14.5,21.6c1.1,13.5-1.7,26.4-9.4,37.9c-0.5,0.7-1,1.4-1.6,1.9
	C153.3,182,152.8,181.9,151.6,182.3z"/>
<path d="M34.6,184.8c-7.5,6-14.6,12.4-13.7,22.6c0.8,9.5,7.3,16.1,16,20.3c-0.1,0.5-0.2,1-0.3,1.5c-2.4,0.2-5,1.1-7,0.4
	c-10.3-3.5-18-19.1-13.9-29.1c1.7-4.1,5.4-7.7,8.9-10.7C27.4,187.5,31.2,186.4,34.6,184.8z"/>
</svg>
