<?xml version="1.0" encoding="utf-8"?>
<!-- Generator: Adobe Illustrator 26.1.0, SVG Export Plug-In . SVG Version: 6.00 Build 0)  -->
<svg version="1.1" id="Layer_1" xmlns="http://www.w3.org/2000/svg" xmlns:xlink="http://www.w3.org/1999/xlink" x="0px" y="0px"
	 viewBox="0 0 224.1 221.8" style="enable-background:new 0 0 224.1 221.8;" xml:space="preserve">
<path d="M55.7,110.4c-0.2-31.9,27.3-56,56.1-56.1c30.9-0.1,56.5,25.6,56.3,56.4c-0.2,31.1-25.7,56.5-56.5,56.4
	C80.7,167,55.6,141.6,55.7,110.4z M64.2,110.1c0,26.7,21.3,47.9,47.9,47.9c26.5,0,47.8-21.2,47.8-47.5c0-26.8-21.1-48.1-47.7-48.1
	C85.3,62.3,64.2,83.3,64.2,110.1z"/>
<path d="M116.5,20.7c0,4.6,0.1,9.3,0,13.9c-0.1,3-1.2,5.8-4.7,5.9c-3.6,0.2-5.1-2.5-5.3-5.5c-0.6-9.8-0.9-19.5-1.2-29.3
	c-0.1-3.1,1.5-5.6,5-5.7c3.5-0.2,5.3,2.2,5.5,5.2c0.3,5.1,0.1,10.3,0.1,15.4C116,20.7,116.3,20.7,116.5,20.7z"/>
<path d="M192,186.9c-0.8,1.2-1.4,3.2-2.6,3.6c-1.6,0.6-4.5,0.9-5.5-0.1c-7.6-7.2-14.9-14.6-22.1-22.3c-0.9-1-0.8-4.5,0.1-5.2
	c1.3-1,4.6-1.4,5.7-0.5c7.9,6.8,15.5,14,23.1,21.2C191.4,184.3,191.5,185.5,192,186.9z"/>
<path d="M193.7,33.9c-0.9,1.7-1.4,3.1-2.2,4C184.8,45,178,52,171.1,59c-0.5,0.5-1.1,1.1-1.6,1.1c-2,0.1-4.7,0.6-5.8-0.4
	c-1.1-1-1.2-4.1-0.4-5.7c1.3-2.6,3.6-4.7,5.6-6.9c5.1-5.5,10.1-11,15.5-16.1c1.4-1.3,4.5-1.5,6.6-1.2
	C192.2,30,192.9,32.5,193.7,33.9z"/>
<path d="M204.8,116.3c-6.7,0-11.3,0.5-15.7-0.2c-2.1-0.3-3.9-2.7-5.8-4.2c1.8-1.6,3.5-4.4,5.4-4.6c9.9-0.8,19.9-1.2,29.9-1.1
	c1.9,0,4.9,2.5,5.4,4.4c0.8,3.1-2,4.6-4.9,4.9C213.6,115.8,208.1,116.1,204.8,116.3z"/>
<path d="M104.7,202.4c0.3-5.5,0.2-11,1.1-16.4c0.3-1.9,2.8-3.4,4.2-5.1c1.4,1.8,3.8,3.6,4,5.5c0.7,9.8,0.8,19.6,1,29.4
	c0,3.3-1.4,6.2-5.2,6c-3.8-0.1-4.7-3.2-4.8-6.4c-0.1-4.3,0-8.7,0-13C104.9,202.4,104.8,202.4,104.7,202.4z"/>
<path d="M35.7,30.1c2,1.2,3.7,1.9,5,3.1c6.2,6,12.3,12.1,18.4,18.3c2.4,2.5,4.7,5.5,1.6,8.7c-3,3.1-6.2,1.2-8.7-1.3
	c-6.3-6.2-12.6-12.3-18.6-18.7c-1.4-1.5-1.8-4.4-1.7-6.6C31.9,32.4,34.2,31.4,35.7,30.1z"/>
<path d="M55.4,160.8c1.1,0.8,3.3,1.6,3.5,2.6c0.3,2,0.1,4.8-1.1,6.3c-4.3,4.9-9,9.3-13.6,13.8c-2.4,2.3-4.5,5-7.3,6.7
	c-1.6,0.9-4.9,0.9-6.1-0.2c-1.1-1.1-1.3-4.9-0.3-6c7-7.5,14.4-14.7,21.8-21.9C52.9,161.5,54,161.3,55.4,160.8z"/>
<path d="M19.7,116c-4.8,0-9.6,0.1-14.4-0.1c-2.8-0.1-5.9-1.1-5.2-4.5c0.4-1.7,3.2-4,5.1-4.1c9.4-0.5,18.9-0.4,28.4-0.4
	c3.1,0,6.2,1.2,5.5,4.7c-0.4,1.8-3.4,4.1-5.4,4.3c-4.6,0.7-9.3,0.2-13.9,0.2C19.7,116.1,19.7,116.1,19.7,116z"/>
<path d="M96.3,141.5c-12.5-6.5-21-16.8-21.7-30.9C73.8,94.9,80.9,82.1,94.7,74c2.9-1.7,6.5-2.2,9.9-2.9c1-0.2,2.2,1,3.3,1.5
	c-0.6,1.1-1.1,2.4-1.9,3.1c-1.2,1.1-2.8,1.7-4.3,2.5c-15,8.6-26.3,34.4-13.6,53.2C90.5,135,93.6,138.2,96.3,141.5z"/>
</svg>
